<svg xmlns="http://www.w3.org/2000/svg" width="39.024" height="39.249" viewBox="0 0 39.024 39.249">
  <g id="Group_48" data-name="Group 48" transform="translate(-807.349 -633.073)">
    <path id="Path_259" data-name="Path 259" d="M843.458,633.073a2.85,2.85,0,0,1,2.063.829,2.691,2.691,0,0,1,.852,2V669.54a2.614,2.614,0,0,1-.852,1.974,2.839,2.839,0,0,1-2.018.809H810.22a2.83,2.83,0,0,1-2.018-.809,2.61,2.61,0,0,1-.852-1.974V635.9a2.687,2.687,0,0,1,.852-2,2.849,2.849,0,0,1,2.063-.829h33.193Zm-24.805,11.863a3.141,3.141,0,0,0,0-4.4,3.26,3.26,0,0,0-2.377-.874,3.341,3.341,0,0,0-2.4.874,2.908,2.908,0,0,0-.92,2.2,2.939,2.939,0,0,0,.9,2.2,3.2,3.2,0,0,0,2.333.875h.045A3.312,3.312,0,0,0,818.653,644.936Zm.538,3.3h-5.876v17.718h5.876Zm21.217,7.536a8.594,8.594,0,0,0-1.929-6.01,6.967,6.967,0,0,0-8.388-.943,6.947,6.947,0,0,0-1.749,1.93v-2.512h-5.876q.044,1.031,0,9.465v8.252h5.876v-9.913a4.405,4.405,0,0,1,.179-1.435,3.573,3.573,0,0,1,1.077-1.479,2.979,2.979,0,0,1,1.974-.674,2.585,2.585,0,0,1,2.288,1.121,5.23,5.23,0,0,1,.673,2.872v9.508h5.876Z" transform="translate(0 0)" fill="#fff"/>
  </g>
</svg>
